<?xml version="1.0" standalone="no"?><svg xmlns="http://www.w3.org/2000/svg" viewBox="0 0 1440 320" style="user-select: auto;"><path fill="#0099ff" fill-opacity="1" d="M0,160L40,165.3C80,171,160,181,240,176C320,171,400,149,480,165.3C560,181,640,235,720,234.7C800,235,880,181,960,170.7C1040,160,1120,192,1200,224C1280,256,1360,288,1400,304L1440,320L1440,320L1400,320C1360,320,1280,320,1200,320C1120,320,1040,320,960,320C880,320,800,320,720,320C640,320,560,320,480,320C400,320,320,320,240,320C160,320,80,320,40,320L0,320Z" style="user-select: auto;"></path></svg>